<mxfile host="app.diagrams.net" modified="2023-08-22T12:58:30.030Z" agent="Mozilla/5.0 (Macintosh; Intel Mac OS X 10.15; rv:109.0) Gecko/20100101 Firefox/115.0" etag="Pf4FxVObL3vNoljo0RqJ" version="21.6.8" type="device">
  <diagram name="Page-1" id="mN9TeN_x1Fqv3jpuZY2o">
    <mxGraphModel dx="1727" dy="1576" grid="1" gridSize="10" guides="1" tooltips="1" connect="1" arrows="1" fold="1" page="1" pageScale="1" pageWidth="850" pageHeight="1100" math="0" shadow="0">
      <root>
        <mxCell id="0" />
        <mxCell id="1" parent="0" />
        <mxCell id="lwoEoO0Lop_A2XOZv95A-50" style="edgeStyle=orthogonalEdgeStyle;rounded=0;orthogonalLoop=1;jettySize=auto;html=1;entryX=1;entryY=0.5;entryDx=0;entryDy=0;startArrow=classic;startFill=1;" edge="1" parent="1" source="lwoEoO0Lop_A2XOZv95A-48" target="lwoEoO0Lop_A2XOZv95A-39">
          <mxGeometry relative="1" as="geometry" />
        </mxCell>
        <mxCell id="lwoEoO0Lop_A2XOZv95A-48" value="" style="rounded=0;whiteSpace=wrap;html=1;fillColor=none;" vertex="1" parent="1">
          <mxGeometry x="1408" y="694" width="390" height="300" as="geometry" />
        </mxCell>
        <mxCell id="lwoEoO0Lop_A2XOZv95A-43" style="edgeStyle=orthogonalEdgeStyle;rounded=0;orthogonalLoop=1;jettySize=auto;html=1;exitX=1;exitY=0.5;exitDx=0;exitDy=0;entryX=0;entryY=0.5;entryDx=0;entryDy=0;" edge="1" parent="1" source="lwoEoO0Lop_A2XOZv95A-42" target="lwoEoO0Lop_A2XOZv95A-39">
          <mxGeometry relative="1" as="geometry" />
        </mxCell>
        <mxCell id="lwoEoO0Lop_A2XOZv95A-42" value="" style="rounded=0;whiteSpace=wrap;html=1;fillColor=none;" vertex="1" parent="1">
          <mxGeometry x="360" y="738" width="280" height="212" as="geometry" />
        </mxCell>
        <mxCell id="lwoEoO0Lop_A2XOZv95A-45" style="edgeStyle=orthogonalEdgeStyle;rounded=0;orthogonalLoop=1;jettySize=auto;html=1;exitX=0.5;exitY=1;exitDx=0;exitDy=0;entryX=0.5;entryY=1;entryDx=0;entryDy=0;entryPerimeter=0;" edge="1" parent="1" source="lwoEoO0Lop_A2XOZv95A-39" target="lwoEoO0Lop_A2XOZv95A-2">
          <mxGeometry relative="1" as="geometry" />
        </mxCell>
        <mxCell id="lwoEoO0Lop_A2XOZv95A-39" value="" style="rounded=0;whiteSpace=wrap;html=1;fillColor=none;" vertex="1" parent="1">
          <mxGeometry x="750" y="699" width="480" height="290" as="geometry" />
        </mxCell>
        <mxCell id="lwoEoO0Lop_A2XOZv95A-36" value="" style="rounded=0;whiteSpace=wrap;html=1;fillColor=none;" vertex="1" parent="1">
          <mxGeometry x="100" y="290" width="170" height="560" as="geometry" />
        </mxCell>
        <mxCell id="lwoEoO0Lop_A2XOZv95A-26" value="" style="rounded=0;whiteSpace=wrap;html=1;fillColor=none;dashed=1;" vertex="1" parent="1">
          <mxGeometry x="440" y="180" width="650" height="380" as="geometry" />
        </mxCell>
        <mxCell id="lwoEoO0Lop_A2XOZv95A-1" value="&lt;div&gt;Ingestion&lt;/div&gt;&lt;div&gt;bucket&lt;/div&gt;" style="shape=cylinder3;whiteSpace=wrap;html=1;boundedLbl=1;backgroundOutline=1;size=15;" vertex="1" parent="1">
          <mxGeometry x="140" y="355" width="90" height="150" as="geometry" />
        </mxCell>
        <mxCell id="lwoEoO0Lop_A2XOZv95A-34" style="edgeStyle=orthogonalEdgeStyle;rounded=0;orthogonalLoop=1;jettySize=auto;html=1;entryX=0.5;entryY=1;entryDx=0;entryDy=0;" edge="1" parent="1" source="lwoEoO0Lop_A2XOZv95A-2" target="lwoEoO0Lop_A2XOZv95A-18">
          <mxGeometry relative="1" as="geometry" />
        </mxCell>
        <mxCell id="lwoEoO0Lop_A2XOZv95A-2" value="&lt;div&gt;Results&lt;/div&gt;&lt;div&gt;bucket&lt;/div&gt;" style="shape=cylinder3;whiteSpace=wrap;html=1;boundedLbl=1;backgroundOutline=1;size=15;" vertex="1" parent="1">
          <mxGeometry x="140" y="595" width="85" height="150" as="geometry" />
        </mxCell>
        <mxCell id="lwoEoO0Lop_A2XOZv95A-22" style="edgeStyle=orthogonalEdgeStyle;rounded=0;orthogonalLoop=1;jettySize=auto;html=1;entryX=0.5;entryY=0;entryDx=0;entryDy=0;startArrow=classic;startFill=1;endArrow=none;endFill=0;" edge="1" parent="1" source="lwoEoO0Lop_A2XOZv95A-3" target="lwoEoO0Lop_A2XOZv95A-18">
          <mxGeometry relative="1" as="geometry" />
        </mxCell>
        <mxCell id="lwoEoO0Lop_A2XOZv95A-23" style="edgeStyle=orthogonalEdgeStyle;rounded=0;orthogonalLoop=1;jettySize=auto;html=1;entryX=0.5;entryY=0;entryDx=0;entryDy=0;startArrow=classic;startFill=1;" edge="1" parent="1" source="lwoEoO0Lop_A2XOZv95A-3" target="lwoEoO0Lop_A2XOZv95A-15">
          <mxGeometry relative="1" as="geometry" />
        </mxCell>
        <mxCell id="lwoEoO0Lop_A2XOZv95A-46" value="" style="edgeStyle=orthogonalEdgeStyle;rounded=0;orthogonalLoop=1;jettySize=auto;html=1;" edge="1" parent="1" source="lwoEoO0Lop_A2XOZv95A-3" target="lwoEoO0Lop_A2XOZv95A-18">
          <mxGeometry relative="1" as="geometry" />
        </mxCell>
        <mxCell id="lwoEoO0Lop_A2XOZv95A-3" value="User" style="shape=umlActor;verticalLabelPosition=bottom;verticalAlign=top;html=1;outlineConnect=0;" vertex="1" parent="1">
          <mxGeometry x="740" y="80" width="30" height="60" as="geometry" />
        </mxCell>
        <mxCell id="lwoEoO0Lop_A2XOZv95A-24" style="edgeStyle=orthogonalEdgeStyle;rounded=0;orthogonalLoop=1;jettySize=auto;html=1;entryX=1;entryY=0.5;entryDx=0;entryDy=0;entryPerimeter=0;" edge="1" parent="1" source="lwoEoO0Lop_A2XOZv95A-5" target="lwoEoO0Lop_A2XOZv95A-1">
          <mxGeometry relative="1" as="geometry" />
        </mxCell>
        <mxCell id="lwoEoO0Lop_A2XOZv95A-5" value="Task ID" style="swimlane;fontStyle=0;childLayout=stackLayout;horizontal=1;startSize=30;horizontalStack=0;resizeParent=1;resizeParentMax=0;resizeLast=0;collapsible=1;marginBottom=0;whiteSpace=wrap;html=1;" vertex="1" parent="1">
          <mxGeometry x="285" y="370" width="140" height="120" as="geometry" />
        </mxCell>
        <mxCell id="lwoEoO0Lop_A2XOZv95A-6" value="Audio file 1" style="text;strokeColor=none;fillColor=none;align=left;verticalAlign=middle;spacingLeft=4;spacingRight=4;overflow=hidden;points=[[0,0.5],[1,0.5]];portConstraint=eastwest;rotatable=0;whiteSpace=wrap;html=1;" vertex="1" parent="lwoEoO0Lop_A2XOZv95A-5">
          <mxGeometry y="30" width="140" height="30" as="geometry" />
        </mxCell>
        <mxCell id="lwoEoO0Lop_A2XOZv95A-7" value="..." style="text;strokeColor=none;fillColor=none;align=left;verticalAlign=middle;spacingLeft=4;spacingRight=4;overflow=hidden;points=[[0,0.5],[1,0.5]];portConstraint=eastwest;rotatable=0;whiteSpace=wrap;html=1;" vertex="1" parent="lwoEoO0Lop_A2XOZv95A-5">
          <mxGeometry y="60" width="140" height="30" as="geometry" />
        </mxCell>
        <mxCell id="lwoEoO0Lop_A2XOZv95A-8" value="Audio file N" style="text;strokeColor=none;fillColor=none;align=left;verticalAlign=middle;spacingLeft=4;spacingRight=4;overflow=hidden;points=[[0,0.5],[1,0.5]];portConstraint=eastwest;rotatable=0;whiteSpace=wrap;html=1;" vertex="1" parent="lwoEoO0Lop_A2XOZv95A-5">
          <mxGeometry y="90" width="140" height="30" as="geometry" />
        </mxCell>
        <mxCell id="lwoEoO0Lop_A2XOZv95A-20" style="edgeStyle=orthogonalEdgeStyle;rounded=0;orthogonalLoop=1;jettySize=auto;html=1;exitX=0.75;exitY=0;exitDx=0;exitDy=0;entryX=0.75;entryY=1;entryDx=0;entryDy=0;" edge="1" parent="1" source="lwoEoO0Lop_A2XOZv95A-10" target="lwoEoO0Lop_A2XOZv95A-15">
          <mxGeometry relative="1" as="geometry" />
        </mxCell>
        <mxCell id="lwoEoO0Lop_A2XOZv95A-25" style="edgeStyle=orthogonalEdgeStyle;rounded=0;orthogonalLoop=1;jettySize=auto;html=1;exitX=0;exitY=0.5;exitDx=0;exitDy=0;entryX=1.016;entryY=0.129;entryDx=0;entryDy=0;entryPerimeter=0;" edge="1" parent="1" source="lwoEoO0Lop_A2XOZv95A-10" target="lwoEoO0Lop_A2XOZv95A-7">
          <mxGeometry relative="1" as="geometry" />
        </mxCell>
        <mxCell id="lwoEoO0Lop_A2XOZv95A-10" value="&lt;div&gt;Backend (create task):&lt;br&gt;&lt;/div&gt;&lt;div&gt;&lt;br&gt;&lt;/div&gt;&lt;div&gt;* Create task with task id (uuid)&lt;/div&gt;&lt;div&gt;* Store all audio files into ingestion bucket under folder of task ID&lt;/div&gt;&lt;div&gt;* Give user ETA on transcription based on batch schedule&lt;/div&gt;&lt;div&gt;* Give link to where the results will be stored (stored for X days or when deleted)&lt;br&gt;&lt;/div&gt;" style="shape=process;whiteSpace=wrap;html=1;backgroundOutline=1;" vertex="1" parent="1">
          <mxGeometry x="460" y="344" width="260" height="180" as="geometry" />
        </mxCell>
        <mxCell id="lwoEoO0Lop_A2XOZv95A-11" value="&lt;div&gt;&lt;b&gt;Condition: If data present in ingestion bucket&lt;/b&gt;&lt;br&gt;&lt;/div&gt;&lt;div&gt;&lt;span style=&quot;white-space: pre;&quot;&gt;&#x9;&lt;/span&gt;* Create instance with TPU/GPU&lt;br&gt;&lt;/div&gt;&lt;div&gt;&lt;span style=&quot;white-space: pre;&quot;&gt;&#x9;&lt;/span&gt;* Run: Transcription + diarization using Whisper JAX for all tasks in ingestion bucket&lt;/div&gt;&lt;div&gt;&lt;span style=&quot;white-space: pre;&quot;&gt;&#x9;&lt;/span&gt;* Optional: Get summary for each transcript&lt;br&gt;&lt;/div&gt;&lt;div&gt;&lt;span style=&quot;white-space: pre;&quot;&gt;&#x9;&lt;/span&gt;* Delete audio files from ingestion bucket&lt;/div&gt;&lt;div&gt;&lt;span style=&quot;white-space: pre;&quot;&gt;&#x9;&lt;/span&gt;* Store transcription results to results bucket as JSON with specific task ID&lt;br&gt;&lt;/div&gt;&lt;div&gt;&lt;span style=&quot;white-space: pre;&quot;&gt;&#x9;&lt;/span&gt;* Delete instance&lt;br&gt;&lt;/div&gt;" style="shape=process;whiteSpace=wrap;html=1;backgroundOutline=1;align=left;" vertex="1" parent="1">
          <mxGeometry x="800" y="760" width="370" height="140" as="geometry" />
        </mxCell>
        <mxCell id="lwoEoO0Lop_A2XOZv95A-19" style="edgeStyle=orthogonalEdgeStyle;rounded=0;orthogonalLoop=1;jettySize=auto;html=1;exitX=0.25;exitY=1;exitDx=0;exitDy=0;entryX=0.25;entryY=0;entryDx=0;entryDy=0;" edge="1" parent="1" source="lwoEoO0Lop_A2XOZv95A-15" target="lwoEoO0Lop_A2XOZv95A-10">
          <mxGeometry relative="1" as="geometry" />
        </mxCell>
        <mxCell id="lwoEoO0Lop_A2XOZv95A-15" value="&lt;div&gt;Frontend: UI to upload audio files&lt;/div&gt;" style="shape=process;whiteSpace=wrap;html=1;backgroundOutline=1;" vertex="1" parent="1">
          <mxGeometry x="460" y="230" width="260" height="60" as="geometry" />
        </mxCell>
        <mxCell id="lwoEoO0Lop_A2XOZv95A-18" value="&lt;div&gt;Frontend: UI to display results for task ID&lt;br&gt;&lt;/div&gt;" style="shape=process;whiteSpace=wrap;html=1;backgroundOutline=1;" vertex="1" parent="1">
          <mxGeometry x="780" y="230" width="300" height="60" as="geometry" />
        </mxCell>
        <mxCell id="lwoEoO0Lop_A2XOZv95A-27" value="GCP: App Engine/Cloud Functions" style="text;html=1;strokeColor=none;fillColor=none;align=left;verticalAlign=middle;whiteSpace=wrap;rounded=0;" vertex="1" parent="1">
          <mxGeometry x="446" y="180" width="260" height="30" as="geometry" />
        </mxCell>
        <mxCell id="lwoEoO0Lop_A2XOZv95A-29" value="" style="strokeColor=#dddddd;shadow=1;strokeWidth=1;rounded=1;absoluteArcSize=1;arcSize=2;fillColor=none;" vertex="1" parent="1">
          <mxGeometry x="960" y="490" width="120" height="60" as="geometry" />
        </mxCell>
        <mxCell id="lwoEoO0Lop_A2XOZv95A-30" value="App&#xa;Engine" style="editableCssRules=.*;html=1;fontColor=#999999;shape=image;verticalLabelPosition=middle;labelBackgroundColor=#ffffff;verticalAlign=middle;labelPosition=right;align=left;spacingLeft=20;part=1;points=[];imageAspect=0;image=data:image/svg+xml,PHN2ZyB4bWxucz0iaHR0cDovL3d3dy53My5vcmcvMjAwMC9zdmciIHhtbG5zOnY9Imh0dHBzOi8vdmVjdGEuaW8vbmFubyIgd2lkdGg9IjIwIiBoZWlnaHQ9IjE2LjAyMDAwMDQ1Nzc2MzY3MiIgZmlsbC1ydWxlPSJldmVub2RkIiB2aWV3Qm94PSI4Ljk0MDY5NjcxNjMwODU5NGUtOCAwIDIwIDE2LjAyMDAwMDQ1Nzc2MzY3MiI+JiN4YTsJPHN0eWxlIHR5cGU9InRleHQvY3NzIj4mI3hhOwkuc3Qwe2ZpbGw6IzQyODVmNDt9JiN4YTsJLnN0MXtmaWxsOiNhZWNiZmE7fSYjeGE7CS5zdDJ7ZmlsbDojNjY5ZGY2O30mI3hhOwk8L3N0eWxlPiYjeGE7CTxwYXRoIGNsYXNzPSJzdDAiIGQ9Ik0xMi4zIDcuMjZsLTEuMjIgMS4yMkExLjcxIDEuNzEgMCAwIDEgMTAgMTEuNDlhMS43NCAxLjc0IDAgMCAxLTEuMzMtLjY0bC0xLjIyIDEuMjJhMy40MyAzLjQzIDAgMCAwIDUuOTg0LTEuMzgxQTMuNDMgMy40MyAwIDAgMCAxMi4zIDcuMjZ6Ii8+JiN4YTsJPHBhdGggY2xhc3M9InN0MSIgZD0iTTEwIDMuNTJhNi4yNSA2LjI1IDAgMCAwIDAgMTIuNSA2LjI1IDYuMjUgMCAwIDAgMC0xMi41bTAgMTAuNzRhNC40NSA0LjQ1IDAgMCAxLTMuMTU3LTcuNTk3QTQuNDUgNC40NSAwIDAgMSAxNC40NCA5LjgyIDQuNDQgNC40NCAwIDAgMSAxMCAxNC4yNiIvPiYjeGE7CTxwYXRoIGNsYXNzPSJzdDIiIGQ9Ik0xOS42MiA5LjE2bC0yLjU2LS44MWE3LjEgNy4xIDAgMCAxIC4xNyAxLjUzIDcuNjIgNy42MiAwIDAgMS0uMDggMS4wOGgyLjQ3YS40NC40NCAwIDAgMCAuMzgtLjQydi0xYS40NC40NCAwIDAgMC0uMzgtLjQyTTEwIDIuNzhhNy40OCA3LjQ4IDAgMCAxIDEuNS4xNUwxMC41OC4zOGMtLjA3LS4yMi0uMjEtLjM4LS40Mi0uMzhoLS4zOGEuNDUuNDUgMCAwIDAtLjQyLjM4bC0uOCAyLjU0QTcuNjQgNy42NCAwIDAgMSAxMCAyLjc4bS03LjIzIDcuMWE3LjEgNy4xIDAgMCAxIC4xNy0xLjUzbC0yLjU2LjgxYS40NC40NCAwIDAgMC0uMzguNDJ2MWEuNDQuNDQgMCAwIDAgLjM4LjQyaDIuNDdhNy42MiA3LjYyIDAgMCAxLS4wOC0xLjA4Ii8+JiN4YTsJPHBhdGggY2xhc3M9InN0MSIgZD0iTTEwIDcuMjZhMi41IDIuNSAwIDEgMCAwIDUgMi41IDIuNSAwIDEgMCAwLTV6bTAgMy43NWExLjI1IDEuMjUgMCAxIDEgMC0yLjUgMS4yNSAxLjI1IDAgMCAxIDEuMjUgMS4yNUExLjI1IDEuMjUgMCAwIDEgMTAgMTEuMDJ6Ii8+JiN4YTs8L3N2Zz4=;" vertex="1" parent="lwoEoO0Lop_A2XOZv95A-29">
          <mxGeometry width="30" height="24" relative="1" as="geometry">
            <mxPoint x="15" y="18" as="offset" />
          </mxGeometry>
        </mxCell>
        <mxCell id="lwoEoO0Lop_A2XOZv95A-31" value="Cloud&#xa;Scheduler" style="sketch=0;html=1;verticalAlign=top;labelPosition=center;verticalLabelPosition=bottom;align=center;spacingTop=-6;fontSize=11;fontStyle=1;fontColor=#999999;shape=image;aspect=fixed;imageAspect=0;image=data:image/svg+xml,PHN2ZyB4bWxucz0iaHR0cDovL3d3dy53My5vcmcvMjAwMC9zdmciIHhtbG5zOnY9Imh0dHBzOi8vdmVjdGEuaW8vbmFubyIgd2lkdGg9IjM2MC4zMDM3NjY4NjA4MzYzIiBoZWlnaHQ9IjM3OC4wNTExNTgwNzc0MDg4IiB2aWV3Qm94PSItMC4wMDAxNjI0MjExNDM2MTM3NTU3IC0wLjAwMDEwMDAwNTk0OTIwNzExNTkyIDk1LjMzMDI2MTIzMDQ2ODc1IDEwMC4wMjYxMDAxNTg2OTE0Ij4mI3hhOzxzdHlsZSB0eXBlPSJ0ZXh0L2NzcyI+JiN4YTsJLnN0MHtmaWxsOiM0Mjg1ZjQ7fSYjeGE7CS5zdDF7ZmlsbDojYWVjYmZhO30mI3hhOwkuc3Qye2ZpbGw6IzY2OWRmNjt9JiN4YTs8L3N0eWxlPiYjeGE7CTxwYXRoIGNsYXNzPSJzdDAiIGQ9Ik03OS45NzEgNzcuNzE1bC03LjM1OSA3LjQ4OCA4LjYzOSA4LjQ5IDcuMzU5LTcuNDg4em0tNjUuMDk2LjA2MWwtOC42NDEgOC40OTIgNy4zNjEgNy40ODggOC42MzktOC40OXoiLz4mI3hhOwk8cGF0aCBjbGFzcz0ic3QxIiBkPSJNNzkuNTUzLjIyMWE1LjI1IDUuMjUgMCAwIDAtMy42NiA4Ljk4NEw4Ni4zODkgMTkuNThhNS4yNSA1LjI1IDAgMCAwIDguOTQxLTMuNzY1IDUuMjUgNS4yNSAwIDAgMC0xLjU2LTMuNzA0TDgzLjI3NSAxLjczOEE1LjI1IDUuMjUgMCAwIDAgNzkuNTUzLjIyMXpNMTUuOTE2IDBhNS4yNSA1LjI1IDAgMCAwLTMuNzIzIDEuNTE2TDEuNjk5IDExLjg5MWE1LjI1IDUuMjUgMCAwIDAtLjA0MyA3LjQyNCA1LjI1IDUuMjUgMCAwIDAgNy40MjQuMDQzTDE5LjU3NiA4Ljk4MkE1LjI1IDUuMjUgMCAwIDAgMTUuOTE2IDB6Ii8+JiN4YTsJPHBhdGggY2xhc3M9InN0MCIgZD0iTTQ4LjEzOCAyNi4yNGMxMy4zNDcgMCAyNS40MzIgMTEuMTM2IDI1LjMxIDI2LjQ4MSAwIDE1LjExLTEyLjI2NyAyNS42NzMtMjUuMTg5IDI1LjY3My0xMS4xNDkgMC0xOC4zMTctNS4xNzEtMjEuOTYtMTAuNzM4bDIxLjgzOS0xNS4wOTd6Ii8+JiN4YTsJPHBhdGggY2xhc3M9InN0MiIgZD0iTTgxLjI1IDkzLjY5M2w0LjY2NCA0LjU4NmE1LjI1IDUuMjUgMCAxIDAgNy4zNjEtNy40OWwtNC42NjYtNC41ODR6TTYuMjM0IDg2LjI2OEwxLjU3IDkwLjg1MWE1LjI1IDUuMjUgMCAwIDAtLjA2NSA3LjQyNCA1LjI1IDUuMjUgMCAwIDAgNy40MjQuMDY0bDQuNjY2LTQuNTg0ek00Ny4zNzEgNS41NzhDMjEuMzQ5IDUuNTc4LjE0NiAyNi43NzkuMTQ2IDUyLjgwMXMyMS4yMDMgNDcuMjI1IDQ3LjIyNSA0Ny4yMjUgNDcuMjI1LTIxLjIwMyA0Ny4yMjUtNDcuMjI1UzczLjM5MyA1LjU3OCA0Ny4zNzEgNS41Nzh6bTAgMTBhMzcuMTUgMzcuMTUgMCAwIDEgMzcuMjI1IDM3LjIyM2MwIDIwLjYxNy0xNi42MDcgMzcuMjI1LTM3LjIyNSAzNy4yMjVTMTAuMTQ2IDczLjQxOCAxMC4xNDYgNTIuODAxYTM3LjE1IDM3LjE1IDAgMCAxIDM3LjIyNS0zNy4yMjN6Ii8+JiN4YTs8L3N2Zz4=;" vertex="1" parent="1">
          <mxGeometry x="590" y="880" width="40" height="42" as="geometry" />
        </mxCell>
        <mxCell id="lwoEoO0Lop_A2XOZv95A-32" value="Workflows" style="sketch=0;html=1;verticalAlign=top;labelPosition=center;verticalLabelPosition=bottom;align=center;spacingTop=-6;fontSize=11;fontStyle=1;fontColor=#999999;shape=image;aspect=fixed;imageAspect=0;image=data:image/svg+xml,PHN2ZyB4bWxucz0iaHR0cDovL3d3dy53My5vcmcvMjAwMC9zdmciIHhtbG5zOnhsaW5rPSJodHRwOi8vd3d3LnczLm9yZy8xOTk5L3hsaW5rIiB4bWxuczp2PSJodHRwczovL3ZlY3RhLmlvL25hbm8iIHdpZHRoPSIxOS41MSIgaGVpZ2h0PSIxOS41IiB2aWV3Qm94PSIwIDAgMTkuNTEgMTkuNSI+JiN4YTsJPHBhdGggZD0iTTE3LjI2IDE3LjgxaC0uN3YtMS41aC43YS43Ni43NiAwIDAgMCAuNzUtLjc1di00LjMxYS43Ni43NiAwIDAgMC0uNzUtLjc1aC0zLjYxVjloMy42MWEyLjI1IDIuMjUgMCAwIDEgMi4yNSAyLjI1djQuMzFhMi4yNSAyLjI1IDAgMCAxLTIuMjUgMi4yNXptLTcuOTUgMGgtNC45di0xLjVoNC45eiIgZmlsbD0iIzQyODVmNCIvPiYjeGE7CTxwYXRoIGZpbGw9IiM2NjlkZjYiIGZpbGwtcnVsZT0iZXZlbm9kZCIgZD0iTTUuODggMTAuNUgyLjI2QTIuMjUgMi4yNSAwIDAgMSAuMDEgOC4yNVYzLjk0YTIuMjUgMi4yNSAwIDAgMSAyLjI1LTIuMjVoMXYxLjVoLTFhLjc1Ljc1IDAgMCAwLS43NS43NXY0LjMxYS43Ni43NiAwIDAgMCAuNzUuNzVoMy42MnoiLz4mI3hhOwk8cGF0aCBmaWxsPSIjNDI4NWY0IiBkPSJNMTUuMDYgMy4xOUg5LjU4di0xLjVoNS40OHoiLz4mI3hhOwk8cGF0aCBmaWxsPSIjYWVjYmZhIiBkPSJNNi4zOSAxLjY5Vi4xOWgtM2ExLjEzIDEuMTMgMCAwIDAtMS4xMyAxLjEydjIuMjVhMS4xMyAxLjEzIDAgMCAwIDEuMTMgMS4xM2gzdi0xLjVIMy43NnYtMS41eiIvPiYjeGE7CTxwYXRoIGZpbGw9IiM2NjlkZjYiIGZpbGwtcnVsZT0iZXZlbm9kZCIgZD0iTTEwLjUxIDEuMzF2Mi4yNWExLjEzIDEuMTMgMCAwIDEtMS4xMiAxLjEzaC0zdi0xLjVoMi42MnYtMS41SDYuMzlWLjE5aDNhMS4xMiAxLjEyIDAgMCAxIDEuMTIgMS4xMnoiLz4mI3hhOwk8cGF0aCBmaWxsPSIjYWVjYmZhIiBkPSJNMTcuMDcgNC44OGEyLjQ0IDIuNDQgMCAxIDEgMi40NC0yLjQ0IDIuNDUgMi40NSAwIDAgMS0yLjQ0IDIuNDR6bTAtMy4zOGEuOTQuOTQgMCAxIDAgLjk0Ljk0Ljk0Ljk0IDAgMCAwLS45NC0uOTR6Ii8+JiN4YTsJPHVzZSB4bGluazpocmVmPSIjQiIgZmlsbD0iIzlhYTBhNiIvPiYjeGE7CTxnIGZpbGw9IiNhZWNiZmEiPiYjeGE7CQk8dXNlIHhsaW5rOmhyZWY9IiNCIi8+JiN4YTsJCTxwYXRoIGQ9Ik0xMy4xMiAxNi4zMnYtMS41aC0zQTEuMTMgMS4xMyAwIDAgMCA5IDE1Ljk1djIuMjVhMS4xMiAxLjEyIDAgMCAwIDEuMTIgMS4xMmgzdi0xLjVIMTAuNXYtMS41eiIvPiYjeGE7CTwvZz4mI3hhOwk8cGF0aCBmaWxsPSIjNjY5ZGY2IiBmaWxsLXJ1bGU9ImV2ZW5vZGQiIGQ9Ik0xNy4yNSAxNS45NXYyLjI1YTEuMTMgMS4xMyAwIDAgMS0xLjEzIDEuMTJoLTN2LTEuNWgyLjY0di0xLjVoLTIuNjR2LTEuNWgzYTEuMTQgMS4xNCAwIDAgMSAxLjEzIDEuMTN6Ii8+JiN4YTsJPHBhdGggZmlsbD0iI2FlY2JmYSIgZD0iTTkuNzYgOVY3LjVoLTNhMS4xMyAxLjEzIDAgMCAwLTEuMTMgMS4xMnYyLjI1QTEuMTMgMS4xMyAwIDAgMCA2Ljc2IDEyaDN2LTEuNUg3LjEzVjl6Ii8+JiN4YTsJPHBhdGggZmlsbD0iIzY2OWRmNiIgZmlsbC1ydWxlPSJldmVub2RkIiBkPSJNMTMuODggOC42MnYyLjI1QTEuMTMgMS4xMyAwIDAgMSAxMi43NiAxMmgtM3YtMS41aDIuNjJWOUg5Ljc2VjcuNWgzYTEuMTIgMS4xMiAwIDAgMSAxLjEyIDEuMTJ6Ii8+JiN4YTsJPGRlZnM+JiN4YTsJCTxwYXRoIGlkPSJCIiBkPSJNMi40NSAxOS41YTIuNDQgMi40NCAwIDEgMSAyLjQzLTIuNDQgMi40NCAyLjQ0IDAgMCAxLTIuNDMgMi40NHptMC0zLjM4YS45NC45NCAwIDEgMCAuOTMuOTQuOTQuOTQgMCAwIDAtLjkzLS45NHoiLz4mI3hhOwk8L2RlZnM+JiN4YTs8L3N2Zz4=;" vertex="1" parent="1">
          <mxGeometry x="1180" y="930" width="42" height="42" as="geometry" />
        </mxCell>
        <mxCell id="lwoEoO0Lop_A2XOZv95A-35" value="Cloud&#xa;Storage" style="sketch=0;html=1;verticalAlign=top;labelPosition=center;verticalLabelPosition=bottom;align=center;spacingTop=-6;fontSize=11;fontStyle=1;fontColor=#999999;shape=image;aspect=fixed;imageAspect=0;image=data:image/svg+xml,PHN2ZyB4bWxucz0iaHR0cDovL3d3dy53My5vcmcvMjAwMC9zdmciIHhtbG5zOnY9Imh0dHBzOi8vdmVjdGEuaW8vbmFubyIgd2lkdGg9IjIwIiBoZWlnaHQ9IjE2IiB2aWV3Qm94PSIwIDAgMjAgMTYiPiYjeGE7CTxzdHlsZSB0eXBlPSJ0ZXh0L2NzcyI+JiN4YTsJLnN0MHtmaWxsOiM0Mjg1ZjQ7fSYjeGE7CS5zdDF7ZmlsbDojNjY5ZGY2O30mI3hhOwkuc3Qye2ZpbGw6I2FlY2JmYTt9JiN4YTsJLnN0M3tmaWxsOiNmZmY7fSYjeGE7CTwvc3R5bGU+JiN4YTsJPHBhdGggY2xhc3M9InN0MiIgZD0iTTAgMGgyMHY3SDB6Ii8+JiN4YTsJPHBhdGggY2xhc3M9InN0MSIgZD0iTTE4IDBoMnY3aC0yeiIvPiYjeGE7CTxwYXRoIGNsYXNzPSJzdDAiIGQ9Ik0xOCA3bDItN2gtMnoiLz4mI3hhOwk8cGF0aCBjbGFzcz0ic3QxIiBkPSJNMCAwaDJ2N0gweiIvPiYjeGE7CTxnIGNsYXNzPSJzdDMiPiYjeGE7CQk8cGF0aCBkPSJNNCAzaDZ2MUg0eiIvPiYjeGE7CQk8cmVjdCB4PSIxMyIgeT0iMiIgd2lkdGg9IjMiIGhlaWdodD0iMyIgcng9IjEuNSIvPiYjeGE7CTwvZz4mI3hhOwk8cGF0aCBjbGFzcz0ic3QyIiBkPSJNMCA5aDIwdjdIMHoiLz4mI3hhOwk8cGF0aCBjbGFzcz0ic3QxIiBkPSJNMTggOWgydjdoLTJ6Ii8+JiN4YTsJPHBhdGggY2xhc3M9InN0MCIgZD0iTTE4IDE2bDItN2gtMnoiLz4mI3hhOwk8cGF0aCBjbGFzcz0ic3QxIiBkPSJNMCA5aDJ2N0gweiIvPiYjeGE7CTxnIGNsYXNzPSJzdDMiPiYjeGE7CQk8cGF0aCBkPSJNNCAxMmg2djFINHoiLz4mI3hhOwkJPHJlY3QgeD0iMTMiIHk9IjExIiB3aWR0aD0iMyIgaGVpZ2h0PSIzIiByeD0iMS41Ii8+JiN4YTsJPC9nPiYjeGE7PC9zdmc+;" vertex="1" parent="1">
          <mxGeometry x="220" y="780" width="42" height="34" as="geometry" />
        </mxCell>
        <mxCell id="lwoEoO0Lop_A2XOZv95A-41" value="Every N minutes/hours run workflow" style="shape=process;whiteSpace=wrap;html=1;backgroundOutline=1;" vertex="1" parent="1">
          <mxGeometry x="430" y="810" width="120" height="60" as="geometry" />
        </mxCell>
        <mxCell id="lwoEoO0Lop_A2XOZv95A-47" value="" style="image;aspect=fixed;html=1;points=[];align=center;fontSize=12;image=img/lib/azure2/ai_machine_learning/Cognitive_Services.svg;" vertex="1" parent="1">
          <mxGeometry x="1720" y="930" width="68" height="48" as="geometry" />
        </mxCell>
        <mxCell id="lwoEoO0Lop_A2XOZv95A-49" value="Generate summary for transcript" style="shape=process;whiteSpace=wrap;html=1;backgroundOutline=1;" vertex="1" parent="1">
          <mxGeometry x="1440" y="767" width="320" height="143" as="geometry" />
        </mxCell>
      </root>
    </mxGraphModel>
  </diagram>
</mxfile>
